<svg t="1584003590574" class="icon" viewBox="0 0 1025 1024" version="1.1" xmlns="http://www.w3.org/2000/svg" p-id="30725" width="200" height="200"><path d="M802.0992 710.5536c-55.5008 0-107.4176-24.1664-155.7504-72.4992L646.3488 635.904l-96.0512-102.4C541.9008 525.0048 542.6176 517.2224 552.5504 510.0544c8.4992-8.4992 16.384-7.7824 23.4496 2.1504l96.0512 102.4c41.2672 41.2672 84.5824 61.8496 130.1504 61.8496 54.0672 0 98.816-19.2512 134.4512-57.6512 35.5328-38.4 53.3504-87.4496 53.3504-147.1488 0-59.6992-17.8176-108.8512-53.3504-147.2512C901.0176 286.0032 856.1664 266.8544 802.0992 266.8544c-45.4656 0-88.8832 20.5824-130.1504 61.8496l0 2.1504L377.5488 635.904l0 2.1504C329.216 686.3872 277.2992 710.5536 221.9008 710.5536c-62.5664 0-115.2-22.7328-157.9008-68.3008C21.2992 596.7872 0 539.9552 0 471.6544s21.2992-125.1328 64-170.7008c42.7008-45.4656 95.3344-68.3008 157.9008-68.3008 55.5008 0 107.4176 24.2688 155.7504 72.4992l0 2.1504 96.0512 102.4c8.4992 8.4992 7.7824 16.384-2.1504 23.4496C462.9504 441.7536 455.0656 441.0368 448 431.104l-96.0512-102.4C310.784 287.4368 267.3664 266.8544 221.9008 266.8544c-54.0672 0-98.816 19.1488-134.4512 57.5488C51.9168 362.8032 34.0992 411.9552 34.0992 471.6544c0 59.6992 17.8176 108.7488 53.3504 147.1488 35.5328 38.4 80.384 57.6512 134.4512 57.6512 45.4656 0 88.8832-20.5824 130.1504-61.8496L352.0512 612.4544l294.4-305.0496L646.4512 305.2544c48.3328-48.3328 100.2496-72.4992 155.7504-72.4992 62.5664 0 115.2 22.7328 157.9008 68.3008C1002.7008 346.5216 1024 403.3536 1024 471.6544S1002.7008 596.7872 960 642.3552C917.2992 687.8208 864.6656 710.5536 802.0992 710.5536z" p-id="30726" fill="#1296db"></path></svg>